# xmcd CD database file
#
# Track frame offsets:
#	150
#	17127
#	31600
#	49065
#	64675
#	85402
#	97450
#	116457
#	133182
#	143737
#	161917
#	173967
#
# Disc length: 2579 seconds
#
# Revision: 0
# Processed by: cddbd v1.5.2PL0 Copyright (c) Steve Scherf et al.
# Submitted via: CDex 1.51
#
DISCID=a70a110c
DTITLE=Hector Luere - The magical sound of the pan Pipes
DYEAR=2012
DGENRE=Country
TTITLE0=Unchained melody
TTITLE1=Melody de dollanes
TTITLE2=The lonely sheperd
TTITLE3=El condor pasa
TTITLE4=My heart will go on
TTITLE5=The sound of silence
TTITLE6=Con te partiro
TTITLE7=Woman in love
TTITLE8=And i love her
TTITLE9=Guantanamera
TTITLE10=Yesterday
TTITLE11=Dont cry fo me Argentina
EXTD=YEAR: 2012
EXTT0=
EXTT1=
EXTT2=
EXTT3=
EXTT4=
EXTT5=
EXTT6=
EXTT7=
EXTT8=
EXTT9=
EXTT10=
EXTT11=
PLAYORDER=
